<?xml version="1.0" encoding="UTF-8" standalone="no"?>
<!-- Created with Inkscape (http://www.inkscape.org/) -->

<svg
   xmlns:dc="http://purl.org/dc/elements/1.1/"
   xmlns:cc="http://creativecommons.org/ns#"
   xmlns:rdf="http://www.w3.org/1999/02/22-rdf-syntax-ns#"
   xmlns:svg="http://www.w3.org/2000/svg"
   xmlns="http://www.w3.org/2000/svg"
   xmlns:xlink="http://www.w3.org/1999/xlink"
   xmlns:sodipodi="http://sodipodi.sourceforge.net/DTD/sodipodi-0.dtd"
   xmlns:inkscape="http://www.inkscape.org/namespaces/inkscape"
   width="1326.2271"
   height="325.88531"
   id="svg2"
   version="1.1"
   inkscape:version="0.48.4 r9939"
   sodipodi:docname="logo.svg">
  <defs
     id="defs4">
    <linearGradient
       id="linearGradient4001">
      <stop
         style="stop-color:#3f51b5;stop-opacity:1;"
         offset="0"
         id="stop4003" />
      <stop
         style="stop-color:#283593;stop-opacity:1;"
         offset="1"
         id="stop4005" />
    </linearGradient>
    <linearGradient
       id="linearGradient3913">
      <stop
         style="stop-color:#b6124a;stop-opacity:1;"
         offset="0"
         id="stop3915" />
      <stop
         style="stop-color:#e91e63;stop-opacity:1;"
         offset="1"
         id="stop3917" />
    </linearGradient>
    <linearGradient
       id="linearGradient3905">
      <stop
         style="stop-color:#3a4cc0;stop-opacity:1;"
         offset="0"
         id="stop3907" />
      <stop
         style="stop-color:#303f9f;stop-opacity:1;"
         offset="1"
         id="stop3909" />
    </linearGradient>
    <linearGradient
       id="linearGradient3897">
      <stop
         style="stop-color:#3749b7;stop-opacity:1;"
         offset="0"
         id="stop3899" />
      <stop
         style="stop-color:#303f9f;stop-opacity:1;"
         offset="1"
         id="stop3901" />
    </linearGradient>
    <radialGradient
       inkscape:collect="always"
       xlink:href="#linearGradient4001"
       id="radialGradient4014"
       gradientUnits="userSpaceOnUse"
       gradientTransform="matrix(-0.49992273,-0.86629506,1.0001089,-0.57714579,16.476062,2098.0453)"
       cx="685.92206"
       cy="946.24335"
       fx="685.92206"
       fy="946.24335"
       r="75" />
    <radialGradient
       inkscape:collect="always"
       xlink:href="#linearGradient4001-4"
       id="radialGradient4014-7"
       gradientUnits="userSpaceOnUse"
       gradientTransform="matrix(-0.49992273,-0.86629506,1.0001089,-0.57714579,16.476062,2098.0453)"
       cx="685.92206"
       cy="946.24335"
       fx="685.92206"
       fy="946.24335"
       r="75" />
    <linearGradient
       id="linearGradient4001-4">
      <stop
         style="stop-color:#7986cb;stop-opacity:1;"
         offset="0"
         id="stop4003-8" />
      <stop
         style="stop-color:#5c6bc0;stop-opacity:1;"
         offset="1"
         id="stop4005-7" />
    </linearGradient>
    <radialGradient
       inkscape:collect="always"
       xlink:href="#linearGradient4001-8"
       id="radialGradient4014-6"
       gradientUnits="userSpaceOnUse"
       gradientTransform="matrix(-0.49992273,-0.86629506,1.0001089,-0.57714579,16.476062,2098.0453)"
       cx="685.92206"
       cy="946.24335"
       fx="685.92206"
       fy="946.24335"
       r="75" />
    <linearGradient
       id="linearGradient4001-8">
      <stop
         style="stop-color:#3f51b5;stop-opacity:1;"
         offset="0"
         id="stop4003-4" />
      <stop
         style="stop-color:#283593;stop-opacity:1;"
         offset="1"
         id="stop4005-1" />
    </linearGradient>
    <radialGradient
       inkscape:collect="always"
       xlink:href="#linearGradient4001-4-8"
       id="radialGradient4014-7-1"
       gradientUnits="userSpaceOnUse"
       gradientTransform="matrix(-0.49992273,-0.86629506,1.0001089,-0.57714579,16.476062,2098.0453)"
       cx="685.92206"
       cy="946.24335"
       fx="685.92206"
       fy="946.24335"
       r="75" />
    <linearGradient
       id="linearGradient4001-4-8">
      <stop
         style="stop-color:#7986cb;stop-opacity:1;"
         offset="0"
         id="stop4003-8-9" />
      <stop
         style="stop-color:#5c6bc0;stop-opacity:1;"
         offset="1"
         id="stop4005-7-9" />
    </linearGradient>
    <linearGradient
       id="linearGradient4001-9">
      <stop
         style="stop-color:#3f51b5;stop-opacity:1;"
         offset="0"
         id="stop4003-9" />
      <stop
         style="stop-color:#283593;stop-opacity:1;"
         offset="1"
         id="stop4005-5" />
    </linearGradient>
    <linearGradient
       id="linearGradient4001-4-7">
      <stop
         style="stop-color:#7986cb;stop-opacity:1;"
         offset="0"
         id="stop4003-8-0" />
      <stop
         style="stop-color:#5c6bc0;stop-opacity:1;"
         offset="1"
         id="stop4005-7-7" />
    </linearGradient>
  </defs>
  <sodipodi:namedview
     id="base"
     pagecolor="#ffffff"
     bordercolor="#666666"
     borderopacity="1.0"
     inkscape:pageopacity="0.0"
     inkscape:pageshadow="2"
     inkscape:zoom="0.5"
     inkscape:cx="683.11879"
     inkscape:cy="213.17636"
     inkscape:document-units="px"
     inkscape:current-layer="layer1"
     showgrid="false"
     inkscape:snap-global="true"
     inkscape:snap-bbox="true"
     inkscape:bbox-paths="true"
     inkscape:bbox-nodes="true"
     inkscape:snap-bbox-edge-midpoints="true"
     inkscape:snap-bbox-midpoints="true"
     inkscape:snap-nodes="true"
     inkscape:object-paths="true"
     inkscape:snap-intersection-paths="true"
     inkscape:object-nodes="true"
     inkscape:snap-smooth-nodes="true"
     inkscape:snap-midpoints="true"
     inkscape:snap-object-midpoints="true"
     inkscape:snap-center="true"
     inkscape:snap-page="true"
     inkscape:window-width="1600"
     inkscape:window-height="876"
     inkscape:window-x="0"
     inkscape:window-y="24"
     inkscape:window-maximized="1"
     width="1052.36px"
     fit-margin-top="0"
     fit-margin-left="0"
     fit-margin-right="0"
     fit-margin-bottom="0">
    <inkscape:grid
       type="xygrid"
       id="grid2993"
       empspacing="5"
       visible="true"
       enabled="true"
       snapvisiblegridlinesonly="true"
       originx="-188.85723px"
       originy="-644.77949px" />
  </sodipodi:namedview>
  <metadata
     id="metadata7">
    <rdf:RDF>
      <cc:Work
         rdf:about="">
        <dc:format>image/svg+xml</dc:format>
        <dc:type
           rdf:resource="http://purl.org/dc/dcmitype/StillImage" />
        <dc:title></dc:title>
      </cc:Work>
    </rdf:RDF>
  </metadata>
  <g
     inkscape:label="Layer 1"
     inkscape:groupmode="layer"
     id="layer1"
     transform="translate(-188.85723,-81.697381)">
    <g
       style="font-size:339.03244019px;font-style:normal;font-variant:normal;font-weight:300;font-stretch:normal;text-align:start;line-height:125%;letter-spacing:0px;word-spacing:0px;writing-mode:lr-tb;text-anchor:start;fill:#1a237e;fill-opacity:1;stroke:none;font-family:DIN Next LT Arabic;-inkscape-font-specification:DIN Next LT Arabic Light"
       id="text4057">
      <path
         d="m 675.20026,403.12107 c -15.36954,0 -26.21856,-3.27731 -32.54712,-9.83194 -6.32864,-6.55461 -9.49294,-17.85568 -9.49291,-33.90324 l 0,-100.69264 c -3e-5,-1.35598 -0.67809,-2.03405 -2.03419,-2.03419 l -16.95162,0 c -2.26023,1.4e-4 -3.39034,-1.12997 -3.39033,-3.39033 l 0,-9.49291 c -10e-6,-2.26005 1.1301,-3.39016 3.39033,-3.39032 l 16.95162,0 c 1.3561,1.6e-4 2.03416,-0.6779 2.03419,-2.0342 l 0,-46.44744 c -3e-5,-2.26 1.13008,-3.39011 3.39033,-3.39032 l 11.5271,0 c 2.26017,2.1e-4 3.39027,1.13032 3.39033,3.39032 l 0,46.44744 c -6e-5,1.3563 0.67801,2.03436 2.03419,2.0342 l 30.51292,0 c 2.26013,1.6e-4 3.39024,1.13027 3.39033,3.39032 l 0,9.49291 c -9e-5,2.26036 -1.1302,3.39047 -3.39033,3.39033 l -30.51292,0 c -1.35618,1.4e-4 -2.03425,0.67821 -2.03419,2.03419 l 0,99.67554 c -6e-5,10.84907 1.92112,18.08175 5.76355,21.69807 4.06832,3.61637 10.84897,5.42454 20.34194,5.42452 l 6.44162,0 c 2.26013,2e-5 3.39024,1.13013 3.39033,3.39033 l 0,10.84904 c -9e-5,2.26021 -1.1302,3.39032 -3.39033,3.39032 l -8.81484,0"
         style=""
         id="path4454" />
      <path
         d="m 787.6054,253.9468 c -9.94503,1.5e-4 -18.0818,1.13025 -24.41034,3.39032 -6.10263,2.03434 -11.52715,4.97262 -16.27355,8.81484 -2.03424,1.58229 -3.7294,1.46928 -5.08549,-0.33903 l -5.76355,-8.47581 c -1.13014,-1.80803 -0.79111,-3.39017 1.0171,-4.74645 5.87652,-4.97232 12.99619,-8.81469 21.35904,-11.52711 8.58876,-2.71209 18.64671,-4.06822 30.17389,-4.06838 10.3969,1.6e-4 19.32474,0.90425 26.78356,2.71225 7.45859,1.80834 13.56117,4.85963 18.30775,9.15388 4.74632,4.29456 8.24965,9.83208 10.51001,16.61259 2.26007,6.78078 3.39018,15.14357 3.39032,25.0884 l 0,108.15135 c -1.4e-4,2.26022 -1.13025,3.39032 -3.39032,3.39032 l -10.84904,0 c -2.26035,0 -3.39045,-1.1301 -3.39032,-3.39032 l 0,-16.95162 -0.33904,0 c -3.16442,6.78066 -9.04098,12.43119 -17.62968,16.95162 -8.36291,4.52043 -19.21193,6.78064 -32.54712,6.78065 -16.27362,-1e-5 -29.38286,-3.95538 -39.32776,-11.86614 -9.94498,-8.13676 -14.91745,-20.11589 -14.91743,-35.93744 -2e-5,-16.27349 5.19847,-28.25263 15.59549,-35.93743 10.62297,-7.91067 25.87942,-11.86605 45.76938,-11.86614 l 41.02293,0 c 1.356,9e-5 2.03407,-0.67797 2.03419,-2.03419 l 0,-16.61259 c -1.2e-4,-6.55451 -0.67819,-12.20505 -2.03419,-16.95163 -1.13023,-4.74632 -3.39045,-8.58868 -6.78065,-11.5271 -3.16442,-3.16416 -7.45882,-5.42437 -12.88323,-6.78065 -5.42462,-1.35598 -12.20526,-2.03404 -20.34195,-2.03419 m -4.40742,134.59588 c 14.01324,10e-6 25.2013,-3.2773 33.56421,-9.83194 8.5887,-6.5546 12.88311,-15.36944 12.88323,-26.44454 l 0,-24.74936 c -1.2e-4,-1.35606 -0.67819,-2.03412 -2.03419,-2.0342 l -38.6497,0 c -16.27363,8e-5 -28.02674,2.59932 -35.25937,7.79775 -7.00672,5.19856 -10.51005,13.22232 -10.51001,24.0713 -4e-5,10.17101 3.39028,17.96875 10.17097,23.39324 7.00662,5.19851 16.95156,7.79776 29.83486,7.79775"
         style=""
         id="path4456" />
      <path
         d="m 958.70554,405.4943 c -7.23277,-1e-5 -14.01341,-0.67807 -20.34195,-2.0342 -6.32866,-1.35613 -12.20522,-3.1643 -17.62969,-5.42452 -5.19853,-2.26021 -9.94498,-4.63343 -14.23936,-7.11968 -4.06841,-2.71224 -7.68476,-5.4245 -10.84904,-8.13678 -1.58217,-1.58213 -1.58217,-3.16428 0,-4.74645 l 7.45872,-8.47581 c 1.3561,-1.3561 2.93825,-1.3561 4.74645,0 6.32857,5.19852 13.90029,9.71895 22.71517,13.5613 8.81478,3.61636 18.75973,5.42453 29.83486,5.42452 14.23926,10e-6 24.74926,-2.82526 31.53002,-8.47582 7.00654,-5.65051 10.50988,-13.22223 10.50998,-22.71517 -10e-5,-4.06834 -0.5652,-7.68468 -1.6951,-10.84904 -0.90425,-3.16424 -2.82543,-5.8765 -5.76359,-8.13678 -2.71238,-2.48617 -6.44173,-4.40735 -11.18807,-5.76355 -4.74656,-1.58208 -10.84914,-2.82519 -18.30775,-3.72935 l -16.27356,-1.69517 c -15.14351,-1.58207 -26.78361,-5.87648 -34.92034,-12.88323 -8.13681,-7.2326 -12.2052,-17.29055 -12.20517,-30.17389 -3e-5,-14.91729 4.97244,-26.44438 14.91743,-34.5813 10.17092,-8.36264 24.18425,-12.54404 42.04002,-12.5442 11.07497,1.6e-4 21.13292,1.58231 30.17389,4.74645 9.26676,2.93844 17.17754,6.55478 23.73224,10.84904 1.8081,1.35628 2.0341,2.93842 0.6781,4.74645 l -6.1026,8.13678 c -1.1302,1.80831 -2.7124,2.14734 -4.7464,1.0171 -5.19866,-3.16417 -11.8663,-5.98943 -20.00296,-8.47581 -7.91086,-2.71212 -16.16064,-4.06824 -24.74937,-4.06839 -12.43126,1.5e-4 -21.81114,2.59939 -28.13969,7.79774 -6.32865,4.97261 -9.49295,11.97928 -9.49291,21.02001 -4e-5,7.91087 2.71221,14.12646 8.13678,18.64679 5.65048,4.29451 15.3694,7.11977 29.15679,8.47581 l 16.27356,1.69516 c 15.8214,1.58224 27.5745,6.10267 35.2594,13.5613 7.6846,7.23276 11.5269,17.1777 11.5271,29.83485 -2e-4,15.59553 -5.3117,27.91369 -15.9346,36.95454 -10.39706,9.04087 -25.76652,13.56129 -46.10836,13.5613"
         style=""
         id="path4458" />
      <path
         d="m 1211.1046,402.10397 c -2.0344,0 -3.3905,-1.1301 -4.0684,-3.39032 l -42.04,-129.17136 -0.3391,0 -42.7181,129.17136 c -0.6781,2.26022 -2.0342,3.39032 -4.0684,3.39032 l -10.1709,0 c -2.0343,0 -3.3904,-1.1301 -4.0684,-3.39032 l -50.5158,-154.93783 c -0.6781,-2.26005 0.113,-3.39016 2.3732,-3.39032 l 12.2051,0 c 2.0342,1.6e-4 3.5034,1.13027 4.4075,3.39032 l 41.3619,129.17136 0.3391,0 42.04,-129.17136 c 0.6779,-2.26005 2.0341,-3.39016 4.0684,-3.39032 l 9.8319,0 c 2.0341,1.6e-4 3.3902,1.13027 4.0684,3.39032 l 42.7181,129.17136 0.339,0 40.3449,-129.17136 c 0.9039,-2.26005 2.373,-3.39016 4.4074,-3.39032 l 12.2052,0 c 2.26,1.6e-4 3.051,1.13027 2.3732,3.39032 l -50.5158,154.93783 c -0.6783,2.26022 -2.0344,3.39032 -4.0684,3.39032 l -10.51,0"
         style=""
         id="path4460" />
      <path
         d="m 1322.4184,197.32838 c -2.2602,2e-4 -3.3903,-1.1299 -3.3903,-3.39032 l 0,-18.98582 c 0,-2.25999 1.1301,-3.3901 3.3903,-3.39033 l 14.9175,0 c 2.2601,2.3e-4 3.3902,1.13034 3.3903,3.39033 l 0,18.98582 c -10e-5,2.26042 -1.1302,3.39052 -3.3903,3.39032 l -14.9175,0 m 1.6952,204.77559 c -2.2603,0 -3.3904,-1.1301 -3.3903,-3.39032 l 0,-154.93783 c -1e-4,-2.26005 1.13,-3.39016 3.3903,-3.39032 l 11.5271,0 c 2.2602,1.6e-4 3.3903,1.13027 3.3903,3.39032 l 0,154.93783 c 0,2.26022 -1.1301,3.39032 -3.3903,3.39032 l -11.5271,0"
         style=""
         id="path4462" />
      <path
         d="m 1455.0755,253.9468 c -9.945,1.5e-4 -18.0818,1.13025 -24.4103,3.39032 -6.1027,2.03434 -11.5272,4.97262 -16.2736,8.81484 -2.0342,1.58229 -3.7294,1.46928 -5.0855,-0.33903 l -5.7635,-8.47581 c -1.1302,-1.80803 -0.7911,-3.39017 1.0171,-4.74645 5.8765,-4.97232 12.9962,-8.81469 21.359,-11.52711 8.5888,-2.71209 18.6467,-4.06822 30.1739,-4.06838 10.3969,1.6e-4 19.3247,0.90425 26.7836,2.71225 7.4585,1.80834 13.5611,4.85963 18.3077,9.15388 4.7463,4.29456 8.2497,9.83208 10.51,16.61259 2.2601,6.78078 3.3902,15.14357 3.3903,25.0884 l 0,108.15135 c -10e-5,2.26022 -1.1302,3.39032 -3.3903,3.39032 l -10.849,0 c -2.2604,0 -3.3905,-1.1301 -3.3904,-3.39032 l 0,-16.95162 -0.339,0 c -3.1644,6.78066 -9.041,12.43119 -17.6297,16.95162 -8.3629,4.52043 -19.2119,6.78064 -32.5471,6.78065 -16.2736,-1e-5 -29.3828,-3.95538 -39.3277,-11.86614 -9.945,-8.13676 -14.9175,-20.11589 -14.9175,-35.93744 0,-16.27349 5.1985,-28.25263 15.5955,-35.93743 10.623,-7.91067 25.8794,-11.86605 45.7694,-11.86614 l 41.0229,0 c 1.356,9e-5 2.0341,-0.67797 2.0342,-2.03419 l 0,-16.61259 c -1e-4,-6.55451 -0.6782,-12.20505 -2.0342,-16.95163 -1.1302,-4.74632 -3.3904,-8.58868 -6.7806,-11.5271 -3.1644,-3.16416 -7.4589,-5.42437 -12.8833,-6.78065 -5.4246,-1.35598 -12.2052,-2.03404 -20.3419,-2.03419 m -4.4074,134.59588 c 14.0132,10e-6 25.2013,-3.2773 33.5642,-9.83194 8.5887,-6.5546 12.8831,-15.36944 12.8832,-26.44454 l 0,-24.74936 c -1e-4,-1.35606 -0.6782,-2.03412 -2.0342,-2.0342 l -38.6497,0 c -16.2736,8e-5 -28.0267,2.59932 -35.2594,7.79775 -7.0067,5.19856 -10.51,13.22232 -10.51,24.0713 0,10.17101 3.3903,17.96875 10.171,23.39324 7.0066,5.19851 16.9516,7.79776 29.8349,7.79775"
         style=""
         id="path4464" />
    </g>
    <g
       id="g4009"
       transform="matrix(2.5084945,0,0,2.5084945,-1178.0371,-2103.4365)">
      <path
         transform="matrix(0.95130296,0,0,0.95130296,141.17827,45.382715)"
         style="fill:#e91e63;fill-opacity:1;stroke:none"
         inkscape:transform-center-x="12.499991"
         inkscape:transform-center-y="2.3725693e-05"
         d="m 503.22646,959.02411 39.41962,-22.75893 39.41962,-22.75892 -10e-6,45.51785 0,45.51789 -39.41961,-22.75896 z"
         id="path3924" />
      <path
         id="path3924-4"
         d="m 619.90625,871.09375 -37.5,21.65625 -37.5,21.65625 c 0,28.86458 0,57.72917 0,86.59375 24.99009,-14.44425 49.99549,-28.86198 75,-43.28125 25,-14.4375 50,-28.875 75,-43.3125 -25,-14.4375 -50,-28.875 -75,-43.3125 z"
         style="fill:url(#radialGradient4014);fill-opacity:1;stroke:none"
         inkscape:connector-curvature="0"
         sodipodi:nodetypes="ccccccc" />
      <path
         sodipodi:nodetypes="cccc"
         inkscape:connector-curvature="0"
         id="rect3921-6"
         d="m 619.91442,957.71403 74.98467,-43.30365 -66.94401,47.94593 z"
         style="fill:#ad1457;fill-opacity:1;stroke:none" />
    </g>
  </g>
</svg>
